<svg width="400" height="400" viewBox="0 0 400 400" fill="none" xmlns="http://www.w3.org/2000/svg">
<rect width="400" height="400" fill="#F2B824"/>
<path d="M61 207.812V114.593L72.8077 109H73.4291V155.796L113.513 109H114.135L121.343 112.729L87.9712 151.073C99.2817 151.073 107.796 153.848 113.513 159.4C119.106 164.828 121.903 172.181 121.903 181.462V202.218L110.095 207.812H109.474V177.795C109.474 172.244 107.982 167.748 104.999 164.31C101.312 160.042 96.7959 157.909 91.4514 157.909C86.024 157.909 81.5081 160.042 77.9036 164.31C74.9206 167.831 73.4291 172.326 73.4291 177.795V202.218L61.6215 207.812H61Z" fill="#212121"/>
<path d="M145.518 114.593L157.326 109H157.947V179.846C157.947 185.398 159.439 189.893 162.422 193.332C166.109 197.599 170.936 199.733 176.902 199.733C182.868 199.733 187.694 197.599 191.382 193.332C194.365 189.893 195.856 185.398 195.856 179.846V114.593L207.664 109H208.285V175.496C208.285 184.445 205.489 191.799 199.896 197.558C194.012 203.565 186.348 206.569 176.902 206.569C167.58 206.569 159.915 203.565 153.908 197.558C148.315 192.006 145.518 184.652 145.518 175.496V114.593Z" fill="#212121"/>
<path d="M233.143 205.326V114.593L244.951 109H245.573V198.49H288.142V199.111L285.222 205.326H233.143Z" fill="#212121"/>
<path d="M299.826 207.812V118.322H273.227V117.7L276.148 111.486H338.853V112.107L335.932 118.322H312.255V202.218L300.447 207.812H299.826Z" fill="#212121"/>
<path d="M61 200.188V293.407L72.8077 299H73.4291V252.204L113.513 299H114.135L121.343 295.271L87.9712 256.927C99.2817 256.927 107.796 254.152 113.513 248.6C119.106 243.172 121.903 235.819 121.903 226.538V205.782L110.095 200.188H109.474V230.205C109.474 235.756 107.982 240.252 104.999 243.69C101.312 247.958 96.7959 250.091 91.4514 250.091C86.024 250.091 81.5081 247.958 77.9036 243.69C74.9206 240.169 73.4291 235.674 73.4291 230.205V205.782L61.6215 200.188H61Z" fill="#212121"/>
<path d="M145.518 293.407L157.326 299H157.947V228.154C157.947 222.602 159.439 218.107 162.422 214.668C166.109 210.401 170.936 208.267 176.902 208.267C182.868 208.267 187.694 210.401 191.382 214.668C194.365 218.107 195.856 222.602 195.856 228.154V293.407L207.664 299H208.285V232.504C208.285 223.555 205.489 216.201 199.896 210.442C194.012 204.435 186.348 201.431 176.902 201.431C167.58 201.431 159.915 204.435 153.908 210.442C148.315 215.994 145.518 223.348 145.518 232.504V293.407Z" fill="#212121"/>
<path d="M233.143 202.674V293.407L244.951 299H245.573V209.51H288.142V208.889L285.222 202.674H233.143Z" fill="#212121"/>
<path d="M299.826 200.188V289.678H273.227V290.3L276.148 296.514H338.853V295.893L335.932 289.678H312.255V205.782L300.447 200.188H299.826Z" fill="#212121"/>
<path fill-rule="evenodd" clip-rule="evenodd" d="M311.952 207.977H61.8286V200.023H311.952V207.977Z" fill="#212121"/>
</svg>
